<svg width="2197" height="1959" viewBox="0 0 2197 1959" fill="none" xmlns="http://www.w3.org/2000/svg">
<path d="M1098.71 1170.69C1205.42 1170.69 1291.93 1084.18 1291.93 977.468C1291.93 870.756 1205.42 784.249 1098.71 784.249C991.999 784.249 905.492 870.756 905.492 977.468C905.492 1084.18 991.999 1170.69 1098.71 1170.69Z" fill="#6D28D9"/>
<path fill-rule="evenodd" clip-rule="evenodd" d="M1098.71 584.614C1358.14 584.614 1599.14 621.839 1780.85 684.395C1999.78 759.77 2134.39 874.017 2134.39 977.469C2134.39 1085.27 1991.73 1206.65 1756.62 1284.54C1578.88 1343.43 1344.97 1374.18 1098.71 1374.18C846.231 1374.18 607.144 1345.32 427.393 1283.9C199.976 1206.17 63 1083.22 63 977.469C63 874.857 191.525 761.491 407.384 686.232C589.773 622.644 836.722 584.614 1098.68 584.614H1098.71Z" stroke="#6D28D9" stroke-width="125"/>
<path fill-rule="evenodd" clip-rule="evenodd" d="M756.724 782.172C886.328 557.443 1038.96 367.27 1183.94 241.11C1358.6 89.1054 1524.82 29.5762 1614.44 81.2521C1707.83 135.108 1741.7 319.33 1691.72 561.907C1653.98 745.309 1563.72 963.282 1440.7 1176.61C1314.56 1395.33 1170.13 1588.03 1027.13 1713.02C846.187 1871.2 671.251 1928.44 579.642 1875.61C490.749 1824.38 456.755 1656.38 499.4 1431.78C535.431 1242.02 625.853 1009.1 756.682 782.168L756.724 782.172Z" stroke="#6D28D9" stroke-width="125"/>
<path fill-rule="evenodd" clip-rule="evenodd" d="M757.044 1177.18C627.075 952.709 538.586 725.45 501.65 536.848C457.188 309.608 488.624 135.866 578.156 84.0399C671.456 30.0261 847.975 92.6828 1033.18 257.128C1173.2 381.455 1316.99 568.473 1440.37 781.601C1566.87 1000.11 1661.68 1221.48 1698.56 1407.79C1745.23 1643.55 1707.46 1823.69 1615.93 1876.68C1527.13 1928.09 1364.62 1873.66 1191.34 1724.54C1044.93 1598.56 888.297 1403.89 757.044 1177.18V1177.18Z" stroke="#6D28D9" stroke-width="125"/>
</svg>
